<?xml version="1.0" encoding="UTF-8"?>
<svg id="svg4769" xmlns="http://www.w3.org/2000/svg" xmlns:svg="http://www.w3.org/2000/svg" xmlns:sodipodi="http://sodipodi.sourceforge.net/DTD/sodipodi-0.dtd" xmlns:inkscape="http://www.inkscape.org/namespaces/inkscape" version="1.1" viewBox="0 0 87.4 72.55">
  <!-- Generator: Adobe Illustrator 30.0.0, SVG Export Plug-In . SVG Version: 2.1.1 Build 123)  -->
  <defs>
    <style>
      .st0 {
        fill: #972a1d;
      }

      .st1 {
        fill: #516a6d;
      }

      .st2 {
        fill: #d6c5ad;
      }

      .st3 {
        fill: #fbcf58;
      }

      .st4 {
        fill: #fdd77f;
      }

      .st5 {
        fill: #cdb595;
      }

      .st6 {
        fill: #e0d0bb;
      }

      .st7 {
        fill: #b39f83;
      }

      .st8 {
        fill: #fdfcfa;
      }

      .st9 {
        fill: #f4f1ea;
      }

      .st10 {
        fill: #716863;
      }

      .st11 {
        fill: #cdb594;
      }

      .st12 {
        fill: #8b795e;
      }

      .st13 {
        fill: #65533c;
      }

      .st14 {
        fill: #d7c6af;
      }

      .st15 {
        fill: #8a7359;
      }

      .st16 {
        fill: #cae7f0;
      }

      .st17 {
        fill: #e7dfd0;
      }

      .st18 {
        fill: #b19a7d;
      }

      .st19 {
        fill: #c08821;
      }

      .st20 {
        fill: #a08d76;
      }

      .st21 {
        fill: #857155;
      }

      .st22 {
        fill: #c34925;
      }

      .st23 {
        fill: #404751;
      }

      .st24 {
        fill: #e2d1b8;
      }

      .st25 {
        fill: #fdd372;
      }

      .st26 {
        fill: #243038;
      }

      .st27 {
        fill: #c2b2a3;
      }

      .st28 {
        fill: #156466;
      }

      .st29 {
        fill: #f1ede6;
      }

      .st30 {
        fill: #ee8918;
      }

      .st31 {
        fill: #ad967a;
      }

      .st32 {
        fill: #856f53;
      }

      .st33 {
        fill: #ccdbdc;
      }

      .st34 {
        fill: #c3b096;
      }

      .st35 {
        fill: #af1917;
      }

      .st36 {
        fill: #fad15e;
      }

      .st37 {
        fill: #69655a;
      }

      .st38 {
        fill: #d1bb9c;
      }

      .st39 {
        fill: #7e6651;
      }

      .st40 {
        fill: #808a86;
      }

      .st41 {
        fill: #c3b39f;
      }

      .st42 {
        fill: #cab192;
      }

      .st43 {
        fill: #ded1be;
      }

      .st44 {
        fill: #c23523;
      }

      .st45 {
        fill: #5b5350;
      }

      .st46 {
        fill: #d79015;
      }

      .st47 {
        fill: #fcda84;
      }

      .st48 {
        fill: #decfba;
      }

      .st49 {
        fill: #e46c1f;
      }

      .st50 {
        fill: #f6cd69;
      }

      .st51 {
        fill: #082840;
      }

      .st52 {
        fill: #d32a23;
      }

      .st53 {
        fill: #aba69c;
      }

      .st54 {
        fill: #817871;
      }

      .st55 {
        fill: #a83a1a;
      }

      .st56 {
        fill: #df4921;
      }

      .st57 {
        fill: #a89376;
      }

      .st58 {
        fill: #322b29;
      }

      .st59 {
        fill: #ea7219;
      }

      .st60 {
        fill: #291a1c;
      }

      .st61 {
        fill: #c8ae8e;
      }

      .st62 {
        fill: #151111;
      }

      .st63 {
        fill: #ebe4d8;
      }

      .st64 {
        fill: #d1ebf2;
      }

      .st65 {
        fill: #c9b496;
      }

      .st66 {
        fill: #dccfba;
      }

      .st67 {
        fill: #fddc91;
      }

      .st68 {
        fill: #c84c26;
      }

      .st69 {
        fill: #776347;
      }

      .st70 {
        fill: #e57419;
      }

      .st71 {
        fill: #faf8f5;
      }

      .st72 {
        fill: #ae8c68;
      }

      .st73 {
        fill: #e8decc;
      }

      .st74 {
        fill: #826f57;
      }

      .st75 {
        fill: #f4f3ee;
      }

      .st76 {
        fill: #0c4a52;
      }

      .st77 {
        fill: #b59d7e;
      }

      .st78 {
        fill: #7f6751;
      }

      .st79 {
        fill: #4c413e;
      }

      .st80 {
        fill: #e45f1a;
      }

      .st81 {
        fill: #f2c146;
      }

      .st82 {
        fill: #a93127;
      }

      .st83 {
        fill: #f8f3ed;
      }

      .st84 {
        fill: #d7c1a2;
      }

      .st85 {
        fill: #338cbc;
      }

      .st86 {
        fill: #e16451;
      }

      .st87 {
        fill: #f7f4f0;
      }

      .st88 {
        fill: #a19078;
      }

      .st89 {
        fill: #9e8869;
      }

      .st90 {
        fill: #962a1a;
      }

      .st91 {
        fill: #847e7d;
      }

      .st92 {
        fill: #efa41d;
      }

      .st93 {
        fill: #dfdaca;
      }

      .st94 {
        fill: #a17d55;
      }

      .st95 {
        fill: #9b856f;
      }

      .st96 {
        fill: #c8baa3;
      }

      .st97 {
        fill: #a6947b;
      }

      .st98 {
        fill: #cfba99;
      }

      .st99 {
        fill: #c9241e;
      }

      .st100 {
        fill: #fff;
      }

      .st101 {
        fill: #1f1618;
      }

      .st102 {
        fill: #feda83;
      }

      .st103 {
        fill: #d7c2a4;
      }

      .st104 {
        fill: #d8701a;
      }

      .st105 {
        fill: #f7d073;
      }

      .st106 {
        fill: #b39c7b;
      }

      .st107 {
        fill: #a56617;
      }

      .st108 {
        fill: #e3dcd0;
      }

      .st109 {
        fill: #e3d8c8;
      }

      .st110 {
        fill: #a68f73;
      }

      .st111 {
        fill: #cfc0aa;
      }

      .st112 {
        fill: #8a7559;
      }

      .st113 {
        fill: #e2d5c2;
      }

      .st114 {
        fill: #cab393;
      }

      .st115 {
        fill: #1b2831;
      }

      .st116 {
        fill: #fcfaf8;
      }

      .st117 {
        fill: #c6b39a;
      }

      .st118 {
        fill: #c4b39f;
      }

      .st119 {
        fill: #b65019;
      }

      .st120 {
        fill: #bce2ea;
      }

      .st121 {
        fill: #b19b7d;
      }

      .st122 {
        fill: #d5bfa1;
      }

      .st123 {
        fill: #7d7e7a;
      }

      .st124 {
        fill: #154054;
      }

      .st125 {
        fill: #3c8e90;
      }

      .st126 {
        fill: #e9dfd0;
      }

      .st127 {
        fill: #c2c3ba;
      }

      .st128 {
        fill: #9f8a6d;
      }

      .st129 {
        fill: #a09581;
      }

      .st130 {
        fill: #958167;
      }

      .st131 {
        fill: #0b2f35;
      }

      .st132 {
        fill: #f6f2ec;
      }

      .st133 {
        fill: #d9cbb6;
      }

      .st134 {
        fill: #b6ae9d;
      }

      .st135 {
        fill: #fccc5a;
      }

      .st136 {
        fill: #d7c4a9;
      }

      .st137 {
        fill: #b39e83;
      }

      .st138 {
        fill: #70604a;
      }

      .st139 {
        fill: #302627;
      }

      .st140 {
        fill: #dac1a1;
      }

      .st141 {
        fill: #f7f6f1;
      }

      .st142 {
        fill: #f6f1eb;
      }

      .st143 {
        fill: #e68517;
      }

      .st144 {
        fill: #83735c;
      }

      .st145 {
        fill: #856d56;
      }

      .st146 {
        fill: #e8821a;
      }

      .st147 {
        fill: #ec7519;
      }

      .st148 {
        fill: #c2ae94;
      }

      .st149 {
        fill: #e6dccd;
      }

      .st150 {
        fill: #dd691b;
      }

      .st151 {
        fill: #b19e82;
      }

      .st152 {
        fill: #9e8b70;
      }

      .st153 {
        fill: #f0a81a;
      }

      .st154 {
        fill: #a07f59;
      }

      .st155 {
        fill: #a73026;
      }

      .st156 {
        fill: #ef9a18;
      }

      .st157 {
        fill: #b75b19;
      }

      .st158 {
        fill: #9c896e;
      }

      .st159 {
        fill: #8aa7ad;
      }

      .st160 {
        fill: #eadecb;
      }

      .st161 {
        fill: #ebe3d5;
      }

      .st162 {
        fill: #d6c8ae;
      }

      .st163 {
        fill: #82695b;
      }

      .st164 {
        fill: #f49f18;
      }

      .st165 {
        fill: #65a3cc;
      }

      .st166 {
        fill: #b9a080;
      }

      .st167 {
        fill: #88725a;
      }

      .st168 {
        fill: #196d6e;
      }

      .st169 {
        fill: #8b6f5f;
      }

      .st170 {
        fill: #cbcbc1;
      }

      .st171 {
        fill: #d5c0a2;
      }

      .st172 {
        fill: #c2391f;
      }

      .st173 {
        fill: #9e876b;
      }

      .st174 {
        fill: #8d785b;
      }

      .st175 {
        fill: #12575a;
      }

      .st176 {
        fill: #f29d17;
      }

      .st177 {
        fill: #e9741a;
      }

      .st178 {
        fill: #c8591b;
      }

      .st179 {
        fill: #f3992e;
      }

      .st180 {
        fill: #796449;
      }

      .st181 {
        fill: #c6b091;
      }

      .st182 {
        fill: #ec9617;
      }

      .st183 {
        fill: #b59b7c;
      }

      .st184 {
        fill: #f1a713;
      }

      .st185 {
        fill: #8d7556;
      }

      .st186 {
        fill: #b8a07f;
      }

      .st187 {
        fill: #bba486;
      }

      .st188 {
        fill: #eee8de;
      }

      .st189 {
        fill: #c0aa8c;
      }

      .st190 {
        fill: #a58e72;
      }

      .st191 {
        fill: #248283;
      }

      .st192 {
        fill: #b0161b;
      }

      .st193 {
        fill: #eb9517;
      }

      .st194 {
        fill: #c74c25;
      }

      .st195 {
        fill: #cab492;
      }

      .st196 {
        fill: #f2a317;
      }

      .st197 {
        fill: #c8b294;
      }

      .st198 {
        fill: #7d6651;
      }

      .st199 {
        fill: #6c563f;
      }

      .st200 {
        fill: #665e5a;
      }

      .st201 {
        fill: #e3d5bd;
      }

      .st202 {
        fill: #e37d14;
      }

      .st203 {
        fill: #dd5121;
      }

      .st204 {
        fill: #d0ebf2;
      }

      .st205 {
        fill: #a18a6b;
      }

      .st206 {
        fill: #987f5d;
      }
    </style>
  </defs>
  <sodipodi:namedview id="namedview4771" bordercolor="#000000" borderopacity="0.25" inkscape:deskcolor="#d1d1d1" inkscape:pagecheckerboard="0" inkscape:pageopacity="0.0" inkscape:showpageshadow="2" pagecolor="#ffffff" showgrid="false"/>
  <g id="Generative_Object">
    <g>
      <g>
        <g>
          <path class="st59" d="M27.04,2.33c-.83.56-1.8,1.95-.72,2.76.83.63,9.57,1.15,11.17,1.22,10.28.44,21.34,0,31.52.77.35.03,1.6.08,1.6.39-.73.73-1.82,1.04-2.82,1.27-9.24-.26-18.52-.04-27.76-.44-2.94-.13-12.46-.43-14.6-1.55-.68-.35-1.1-1.03-1.71-1.44.4-1.42,1.91-2.64,3.32-2.99Z"/>
          <path class="st194" d="M71.61,8.19c-.82,4.44-5.02,3.67-8.29,3.43-.36-.03-.73-.08-1.11-.11-.5-.04-1.02-.18-1.55-.22-1.51-.11-3.02-.23-4.53-.33-.58-.04-1.18-.07-1.77-.11-.48-.03-.96-.08-1.44-.11-3.71-.22-7.11-.44-10.84-.44-.37,0-.73,0-1.11,0-.55,0-1.11-.01-1.66,0-1.7.04-3.39.16-5.09.22-.56.02-1.1.09-1.66.11-.42.02-.81.1-1.22.11-3.39.12-7.52.38-7.74-4.31,1.11,1.39,2.95,2.14,4.7,2.32,8.1.83,17.82.45,26.1.66,3.89.1,12.47,1.26,15.7-.22.5-.23.99-.77,1.49-1Z"/>
          <path class="st3" d="M71.72,7.41c0,.33-.06.48-.11.77-.5.23-.99.76-1.49,1-3.24,1.48-11.81.32-15.7.22-8.28-.22-18,.17-26.1-.66-1.75-.18-3.59-.93-4.7-2.32,0-.14,0-.3,0-.44l2.16,1.66c9.18,1.43,18.76,1.08,28.09,1.33,3.43.09,6.98.52,10.4.55,2.86.03,5.36.18,7.47-2.1Z"/>
          <g>
            <path class="st176" d="M71.72,7.41c-2.1,2.28-4.6,2.13-7.47,2.1-3.42-.03-6.96-.46-10.4-.55-9.33-.25-18.91.1-28.09-1.33l-2.16-1.66c.02-.27.04-.41.11-.66.62.41,1.04,1.08,1.71,1.44,2.14,1.12,11.66,1.42,14.6,1.55,9.24.4,18.52.18,27.76.44,1-.23,2.09-.54,2.82-1.27,0-.31-1.25-.36-1.6-.39-10.18-.77-21.24-.33-31.52-.77-1.6-.07-10.34-.59-11.17-1.22-1.08-.81-.11-2.21.72-2.76.18-.04.44-.12.61-.22h39.92c2.44.61,4.19,2.76,4.15,5.31Z"/>
            <path class="st25" d="M32.73,2.77c11.19-.85,23.67.46,34.95.22l.94.5c-.69.16-1.46.24-2.16.28-11.74.69-24.13-.51-35.94,0-1.54-.7,1.65-.95,2.21-1Z"/>
          </g>
        </g>
        <path class="st16" d="M52.92,10.73c.15.73.58,1.55.77,2.21.53,1.84.95,3.78,1.44,5.64-4.41,1.71-9.93,2.35-14.49.77-.21-.07-.62-.37-.88-.44.41-1.61.98-3.27,1.33-4.87l1-3.76c3.73,0,7.13.22,10.84.44Z"/>
        <path class="st64" d="M39.32,10.29c-.1.29-.25.59-.33.88s-.14.6-.22.88c-.67,2.51-1.42,5.21-2.1,7.52l-2.43-9.07c1.7-.06,3.38-.18,5.09-.22Z"/>
      </g>
      <g>
        <g>
          <path class="st70" d="M5.58,13.83c0,.22.16.47.22.66.01.03-.01.08,0,.11,1.85,5.58,9.85,5.6,14.49,4.2l.33.22c-4.65,1.26-9.3,2.45-13.93,3.76-1.63-2.01-3.12-4.21-3.76-6.75.7-1.07,1.51-1.7,2.65-2.21Z"/>
          <path class="st55" d="M21.73,18.8c.22.22.53.37.66.66-4.28.54-8.87,2.53-13.05,3.65-1.6.2-3.8.77-4.53,2.43-.48-.62-.83-1.31-1.22-1.99,1.04-.22,2.07-.49,3.1-.77,4.64-1.31,9.28-2.5,13.93-3.76.06-.02.16.02.22,0,.29-.08.58-.21.88-.22Z"/>
          <path class="st178" d="M6.69,22.79c-1.02.29-2.06.55-3.1.77-1.39-2.46-2.38-4.89-.66-7.52.64,2.54,2.13,4.74,3.76,6.75Z"/>
          <path class="st184" d="M21.73,18.8c-.31.01-.59.14-.88.22,0-.12-.22-.5-.28-.55-3.55-3.1-10.19-6.62-14.76-3.98-.06-.19-.22-.45-.22-.66,6.01-2.7,11.98.8,16.15,4.98Z"/>
          <path class="st156" d="M20.29,18.8c-4.64,1.4-12.64,1.38-14.49-4.2,5.02-1.5,10.39,1.47,14.49,4.2Z"/>
          <path class="st47" d="M20.85,19.02c-.06.02-.16-.02-.22,0l-.33-.22c-4.1-2.73-9.46-5.7-14.49-4.2-.01-.03.01-.08,0-.11,4.58-2.64,11.22.88,14.76,3.98.06.05.29.43.28.55Z"/>
        </g>
        <g>
          <path class="st22" d="M20.07,28.09c-1.03.27-2.05.48-3.1.66-2.26.4-4.9.82-7.19.88s-4.9.24-5.2-2.65c.46.14.82.62,1.27.77,2.48.85,13.44-.43,16.04-1.55.81-.35,1.51-.86,2.05-1.55.41,2.66-1.93,2.92-3.87,3.43Z"/>
          <path class="st36" d="M23.94,24.67c-.54.69-1.24,1.2-2.05,1.55-2.59,1.12-13.55,2.39-16.04,1.55-.45-.15-.81-.63-1.27-.77,0-.04,0-.07,0-.11.08.04.32-.09.33-.11.29.39,1.16.71,1.6.77,3.54.48,13.78-.35,16.53-2.54.24-.19.52-.38.77-.55,0,.01.07-.04.11.22Z"/>
          <path class="st30" d="M23.06,25c-2.76,2.19-12.99,3.02-16.53,2.54-.44-.06-1.32-.39-1.6-.77.05-.09-.07-.36.06-.44.09-.06,1.64.22,1.88.22,3.67,0,8.22-.28,11.83-.88,1-.17,3.08-.98,3.87-1,.37,0,.36-.02.5.33Z"/>
          <g>
            <path class="st196" d="M13.1,23.01c1.7-.05,9.01-.25,10.06.44.24.16.57.69.66,1-.26.17-.53.36-.77.55-.14-.35-.13-.34-.5-.33-.79.01-2.87.83-3.87,1-3.61.61-8.16.89-11.83.88-.24,0-1.79-.29-1.88-.22-.13.09,0,.36-.06.44-.01.02-.25.15-.33.11-.03-.54,0-.83.22-1.33.73-1.66,2.94-2.23,4.53-2.43,1.09-.14,2.62-.07,3.76-.11Z"/>
            <path class="st102" d="M15.59,23.34c.94,0,1.92-.09,2.82.17.05.14-.43.26-.5.28-1.97.37-6.38.43-8.52.44-.56,0-1.34.13-1.82-.17-.05-.26.99-.36,1.16-.39,1.91-.26,4.89-.32,6.86-.33Z"/>
          </g>
        </g>
      </g>
      <g>
        <path class="st100" d="M78.13,49.77h-.22c.05-.13-.13-.46.17-.44.12.1.01.37.06.44Z"/>
        <g>
          <path class="st23" d="M83.44,42.58c.12-.36.19-.18.22-.22.01-.02.3-.02.44-.33.22.09-.01.56.39.55,1.01-.02.64-3.12,0-3.65-.33.22.02.58-.39.77l.11-1.6c1.69,1.03,1.44,4.94-.06,6.14l-.17-1.71-.55.06Z"/>
          <path class="st91" d="M84.11,42.03c.14-.31.03-1.18,0-1.55-.02-.25.09-.45-.11-.77.04,0,.09.01.11,0,.41-.19.06-.55.39-.77.64.53,1.01,3.63,0,3.65-.4,0-.17-.46-.39-.55Z"/>
          <g>
            <path class="st118" d="M84,39.71c.2.32.09.53.11.77-.42-.58-.48-.64-1.11-.22.78-1.74.96-7.07-1.05-7.96-1.45-.64-1.93,2.64-1.82,3.48-.15.13-.04-.13-.22-.17-.21-1.8.34-4.26,2.71-3.76,2.7.57,1.11,5.89.83,7.69.19.11.32.18.55.17Z"/>
            <path class="st41" d="M79.9,47.45c.34.9.49,1.87,1.27,2.54.37-.18,1.19-.58,1.6-1.16,1.27-1.79.52-4.14.66-6.03.56,1.79,1.61,7.11-1.16,7.52-1.84.27-2.37-1.41-2.38-2.88Z"/>
            <path class="st163" d="M80.68,41.48c.08.55.54.62.55.72.01.11-.88,1.48-1,1.94h-.33c.07-.84.09-1.91.11-2.76l.66.11Z"/>
            <path class="st169" d="M80.68,41.48l-.66-.11c.02-.98.04-2,0-2.99.51-.34.66,1.17.77,1.6.02.07.32.27.33.33.03.24-.55.35-.44,1.16Z"/>
            <path class="st2" d="M84.11,40.48c.03.37.14,1.24,0,1.55s-.43.31-.44.33l.17-1.33-1.6-.06c.35-.11.52-.55.77-.72.63-.42.68-.36,1.11.22Z"/>
            <g>
              <path class="st109" d="M83,40.26c-.26.17-.43.6-.77.72l1.6.06-.17,1.33s-.1-.14-.22.22c-.02.05,0,.15,0,.22-.14,1.88.61,4.24-.66,6.03-.42.58-1.23.98-1.6,1.16-.78-.67-.93-1.64-1.27-2.54,0-.66.18-2.71.33-3.32.11-.46,1.01-1.83,1-1.94-.01-.1-.48-.17-.55-.72-.11-.81.47-.92.44-1.16,0-.06-.31-.26-.33-.33-.11-.43-.27-1.94-.77-1.6-.04-.81-.07-1.89-.22-2.65.13.02.1-.11.11-.11.18.04.08.3.22.17-.11-.85.38-4.13,1.82-3.48,2.01.89,1.83,6.23,1.05,7.96Z"/>
              <path class="st8" d="M81.4,32.96c.22,0,.23,3.51.17,3.7-.07.22-.25.36-.5.28-.55-.18-.3-3.46.33-3.98Z"/>
              <path class="st116" d="M81.4,45.01c.19.07.09,3.99-.11,3.98-.54-1.08-1.05-3.23.11-3.98Z"/>
              <path class="st71" d="M81.06,37.72c.4.32.57,1.07.33,1.55-.21.02-.59-1.33-.33-1.55Z"/>
              <path class="st141" d="M81.18,43.69l-.33,1.11c-.33-.17.27-1.13.33-1.11Z"/>
            </g>
          </g>
          <g>
            <path class="st51" d="M77.47,34.84c.35.21.76.18,1.11.33.41.18.58.29.83.66.43-.29-.17-.75-.06-1.11.28.37.35.55.44,1,.16.77.19,1.85.22,2.65.04.98.02,2,0,2.99-.02.85-.04,1.93-.11,2.76-.16,2,.08,4.3-2.65,4.09.62-4.39.55-9.1,0-13.49.22-.06.21.1.22.11Z"/>
            <path class="st124" d="M79.35,34.73c-.12.35.49.82.06,1.11-.25-.37-.42-.49-.83-.66.39-.76-.72-.81-1.11-.33-.01,0,0-.17-.22-.11-.03-.2-.17-.55-.22-.88.98-.05,1.71.07,2.32.88Z"/>
            <path class="st159" d="M78.58,35.17c-.35-.15-.76-.12-1.11-.33.39-.48,1.5-.43,1.11.33Z"/>
          </g>
        </g>
      </g>
      <g>
        <g>
          <path class="st150" d="M32.24,56.85c.02.13-.19.19-.22.22-2.72.37-5.57-.37-8.02-1.55-.88-.42-1.72-1.28-2.6-1.44-.07-.2.15-.56-.22-.66.07-.15.11-.1.11-.11,1.88.71,3.65,1.73,5.59,2.32.96.29,4.95.93,5.36,1.22Z"/>
          <path class="st90" d="M32.35,57.18s0,.08,0,.11c-.25.93-.6,1.31-1.55,1.44-.87.12-2-.11-2.88-.22-1.02-.14-2.98-.54-3.87-.88-.26-.1-2.76-1.43-2.88-1.55-.77-.79-.42-1.46-.11-2.32.58,2.96,7.19,4.81,9.68,4.42.68-.1,1.21-.45,1.6-1Z"/>
          <path class="st81" d="M21.4,54.08c.88,2.51,8.57,5.09,10.62,2.99.03-.04.24-.09.22-.22.1.07.15.03.11.22,0,.04,0,.08,0,.11-.4.54-.92.89-1.6,1-2.49.38-9.09-1.46-9.68-4.42.04-.1.05-.2.11-.33.37.11.15.47.22.66Z"/>
          <g>
            <path class="st182" d="M26.49,50.99c.92.24,4.23,1.51,4.87,2.1.06.05.32.31.33.33.02.03.17.44.22.55.43,1,.58,2.01.44,3.1.04-.19,0-.15-.11-.22-.41-.28-4.4-.92-5.36-1.22-1.93-.59-3.7-1.62-5.59-2.32,1.28-2.45,2.57-3.01,5.2-2.32Z"/>
            <path class="st67" d="M25.21,51.43c.44-.15,3.89.64,3.7,1.16-.48.56-3.94-.46-3.98-.77-.03-.12.21-.37.28-.39Z"/>
          </g>
          <path class="st202" d="M32.02,57.07c-2.05,2.1-9.73-.47-10.62-2.99.88.16,1.72,1.01,2.6,1.44,2.45,1.18,5.3,1.92,8.02,1.55Z"/>
        </g>
        <g>
          <path class="st60" d="M24.05,57.62c-.24,2.52,2.77,2.93,3.87.88.88.12,2,.34,2.88.22-.34,2-1.9,3.53-3.87,3.87l-1.88-.17c.5-.15,1.95-.07,1.99-.83.81-.2,2.77-2.18,2.05-.66.32-.23.43-.57.61-.88.01-.02.28-.02.33-.28-.06-.43-.26-.15-.33-.17-.32-.08-1.15-.22-1.44-.22-1.23.01-.89.35-1.6.55-1.11.32-1.96.24-2.71-.72-.7-.89,0-1.06-1.55-1.71-.02,0-.26-.34-.39-.33-.32.03-.16,1.14-.06,1.38.04.1.22.04.22.06.07.18.41,1.06.44,1.11-.93.06-.72-1.62-1.44-1.16l-.22-1.05c0-.53.05-.94.22-1.44.11.12,2.61,1.45,2.88,1.55Z"/>
          <path class="st101" d="M22.62,59.72c.12.2.3.36.44.55.88,1.16,2.53,1.68,3.98,1.33-.04.76-1.49.68-1.99.83l1.88.17c-3.44.59-6.02-1.63-5.97-5.09l.22,1.05c.72-.46.5,1.22,1.44,1.16Z"/>
          <path class="st79" d="M28.26,59.39c-.77,1.45-2.27,1.53-3.7,1.22-.44-.1-.78-.63-1.49-.33-.14-.19-.32-.35-.44-.55-.03-.05-.37-.93-.44-1.11l.22-1.11c1.54.66.85.83,1.55,1.71.75.96,1.6,1.03,2.71.72.72-.2.37-.54,1.6-.55Z"/>
          <path class="st139" d="M29.69,59.61v.44c-.18.32-.29.66-.61.88.73-1.52-1.24.47-2.05.66-1.45.36-3.1-.17-3.98-1.33.71-.3,1.05.23,1.49.33,1.43.32,2.94.24,3.7-1.22.29,0,1.12.14,1.44.22Z"/>
          <path class="st53" d="M22.39,57.51l-.22,1.11s-.18.04-.22-.06c-.1-.24-.26-1.35.06-1.38.12-.01.36.32.39.33Z"/>
          <path class="st27" d="M29.69,60.06v-.44c.07.02.27-.26.33.17-.06.25-.32.26-.33.28Z"/>
          <g>
            <path class="st20" d="M27.92,58.51c-1.1,2.05-4.11,1.64-3.87-.88.89.35,2.85.75,3.87.88Z"/>
            <path class="st111" d="M24.66,58.62l1.94.5c-.79.86-1.06.09-1.38-.06-.05-.02-.56.52-.55-.44Z"/>
          </g>
        </g>
      </g>
      <g>
        <path class="st130" d="M18.74,34.29c.2.02.24.1.33.11l5.75,5.2c-.49.49-1.11,1.41-1.22,2.1-.03.21,0,.54,0,.77,0,.04,0,.07,0,.11.12,2.11,1.71,4.13,3.87,4.42.57.35,1.23.62,1.88.77,1.02.95,2.51,2.14,3.87,2.32-.34.5-.65,1.05-1,1.55-.31.46-.79.84-.88,1.44-.64-.59-3.94-1.86-4.87-2.1-3.55-6.22-7.12-11.72-11.94-17.03,1.38.28,2.81.21,4.2.33Z"/>
        <path class="st52" d="M77.03,33.84c.05.34.2.68.22.88.55,4.39.62,9.11,0,13.49-.09.62-.22,1.26-.33,1.88l-.44.39-.22,1.55c-.2.17-.28-.14-.44-.17.83-5.25.93-10.77.66-16.09-.14-2.83-.32-5.67-1-8.41-.06-.24-.55.5-.55.55,0,.03.32.38.33.55.59,7.61.54,14.46.33,22.06h-.55c.09-1.15.05-2.13.11-3.21.27-5.22.31-9.93,0-15.15-.03-.56.43-1.52-.33-1.99l-1.11-7.3c2,2.69,2.85,7.64,3.32,10.95Z"/>
        <path class="st89" d="M32.35,53.75c.08.39.46.54.66.77.09.1.13.23.33.44,1.02,1.06,2.16,1.9,3.43,2.65,4.06,2.41,8.65,2.64,13.27,3.21-.09.58-.11.96-.11,1.55-5.06-.57-10.14-1.58-14.76-3.76-.77-.36-1.77-1.18-2.43-1.44-.28-.11-.15.02-.39.11,0-.03,0-.08,0-.11s0-.07,0-.11c.14-1.09-.01-2.1-.44-3.1.07,0,.43-.2.44-.22Z"/>
        <path class="st160" d="M32.02,19.14c-.24.8-.02,1.97.22,2.76h-14.54l-.06-.77c1.47-.41,3.33-.65,4.7-1.11.22-.07.47-.12.39-.44,3.07-.35,6.2-.34,9.29-.44Z"/>
        <path class="st153" d="M70.83,20.9c2.89,1.81,3.26,5.94,3.1,9.07-1.21-.28-2.72-.31-3.98-.44-.04,0-.07,0-.11,0,.04-1.11-.14-2.22-.22-3.32.76.04,3.78.69,3.76-.39,0-.15-1.08-2.45-1.22-2.65-.77-1.15-1.67-1.29-2.99-1.49-.03-.29-.1-.72,0-1,.24,0,1.37.16,1.66.22Z"/>
        <path class="st12" d="M16.98,28.76l1.44,1.6c.01.23-.41.21-.55.28-.71.33-1.59.4-2.21.88-.67-.12-1.87.66-2.6.66-.15.16.18.4.28.55l-3.54-3.1c2.29-.06,4.93-.48,7.19-.88Z"/>
        <path class="st99" d="M75.15,47.34c-.06,1.08-.02,2.06-.11,3.21-.19,2.4-.36,6.4-1,8.63-.11.39-.21.35-.33.55l.77-6.47c-.24-.16-.44.04-.66.06.21-1.93.35-3.92.44-5.86.29-.04.6.03.88-.11Z"/>
        <path class="st192" d="M76.92,50.1c-.56,2.96-1.46,6.41-2.88,9.07.64-2.23.8-6.22,1-8.63h.55c0,.3-.09,1.5.06,1.55.22.08.15-.22.17-.22.17.03.24.34.44.17l.22-1.55.44-.39Z"/>
        <path class="st7" d="M22.73,19.58c.08.32-.17.37-.39.44-1.37.46-3.23.7-4.7,1.11-.8.22-4.04,1.04-4.48,1.44-.28.26-.06.11-.06.44-1.14.04-2.67-.03-3.76.11,4.18-1.12,8.77-3.11,13.05-3.65.09-.01.12.13.33.11Z"/>
        <path class="st80" d="M73.71,22.9l1.11,7.3c-.29-.18-.46-.05-.66-.11-.1-.03-.12-.09-.22-.11.16-3.13-.21-7.26-3.1-9.07,1.4.31,2.05.87,2.88,1.99Z"/>
        <path class="st157" d="M72.71,60.39s.02.33,0,.44c-1.5,1.09-3,1.09-4.76,1.33l.22-2.1s.07,0,.11,0c1.47.06,2.96.18,4.42.33Z"/>
        <path class="st201" d="M67.3,20.57c-2.1.45-4.23.9-6.03,2.1-.33.02.11-1.11.17-1.33.09-.4.14-.82.22-1.22,2.03.05,3.64.2,5.64.44Z"/>
        <path class="st151" d="M32.46,19.25c.02.25-.02.52,0,.77.18,1.86,1.24,3.21,2.43,4.53.28.31.42.1.44.17.05.14-.29.93-.33,1.16-1-.99-2.35-2.63-2.76-3.98-.25-.79-.47-1.96-.22-2.76.26,0,.36.11.44.11Z"/>
        <path class="st35" d="M73.71,59.72c-.29.47-.55.78-1,1.11.02-.11,0-.39,0-.44.25-2.36.85-4.71,1.11-7.08.23-.02.43-.22.66-.06l-.77,6.47Z"/>
        <path class="st128" d="M15.65,31.52c.38.07,1.66,1.49,2.1,1.77-1.17-.08-2.37-.25-3.54-.28-.17,0-.36-.04-.44.17-.14-.16-.31-.23-.44-.44-.1-.15-.43-.4-.28-.55.73,0,1.93-.79,2.6-.66Z"/>
        <path class="st19" d="M17.75,33.29c.07,0,.15,0,.22,0l.77,1c-1.39-.12-2.82-.05-4.2-.33-.24-.27-.53-.49-.77-.77.08-.2.27-.17.44-.17,1.17.03,2.37.2,3.54.28Z"/>
        <path class="st206" d="M68.18,60.06l-.22,2.1c-.47.06-.95.24-1.44.22.02-.69-.15-1.66-.33-2.32.66.02,1.33-.03,1.99,0Z"/>
        <path class="st203" d="M33.45,19.14c.29,1.17.68,2.36,1,3.54l-.44-.28-1.55-2.38c-.02-.25.02-.52,0-.77.19,0,.7-.22,1-.11Z"/>
        <path class="st24" d="M69.18,20.68c-.1.27-.03.7,0,1-.91-.14-2.08-.23-2.82-.33-.11-.01-.69.2-.83-.11.33-.06.85-.21.94-.22.03,0,.28.26.55.22.33-.04,1.3-.54,1.38-.55.23-.03.53,0,.77,0Z"/>
        <path class="st112" d="M51.92,56.85c-.94,1.07-1.66,2.58-1.88,3.98-4.62-.57-9.21-.8-13.27-3.21-.02-.35-.26-.26.17-.33.58-.09,1.19.03,1.77-.22,1.16-.49,1.52-2.07,1.38-3.21,3.39,1.96,7.96,2.77,11.83,2.99Z"/>
        <path class="st205" d="M36.88,50.54c-.08.32.17.37.39.44,6.01,2.01,13.07,2.29,19.35,2.76l.28.44c-1.82.17-3.77,1.28-4.98,2.65-3.87-.22-8.44-1.02-11.83-2.99-.45-.26-.9-.93-1.38-1.22-.94-.56-2.28-.81-3.26-1.33.02-.06,0-.15,0-.22.14-.22.3-.44.44-.66.34,0,.66.07,1,.11Z"/>
        <path class="st186" d="M56.9,51.21c-.07.49.31,2.4.11,2.88l-.11.11-.28-.44c-6.29-.48-13.35-.76-19.35-2.76-.22-.07-.47-.12-.39-.44,6.61.87,13.59.2,20.02.66Z"/>
        <path class="st185" d="M69.06,53.64l-.77,6.41s-.07,0-.11,0c-.66-.03-1.33.02-1.99,0-.9-3.23-4.16-5.89-7.52-5.97v-.33c3.45.39,6.94.06,10.4-.11Z"/>
        <path class="st76" d="M58.67,51.21v2.88c-.52-.01-1.13.32-1.66,0,.2-.47-.18-2.39-.11-2.88.01-.1.01-.1.11-.11.35-.05,1.27.39,1.66-.11v.22Z"/>
        <path class="st46" d="M20.4,33.4c.23.02.52.09.77.11,3.82.27,7.75.48,11.5,1-.09.33-.24.66-.33,1l-10.62-.77c-.86-.25-1.77-.25-2.65-.33-.09,0-.13-.09-.33-.11l-.77-1c.8.05,1.63.05,2.43.11Z"/>
        <path class="st197" d="M21.73,34.73l3.98,4.2c-.29.17-.65.42-.88.66l-5.75-5.2c.88.08,1.8.08,2.65.33Z"/>
        <path class="st121" d="M32.35,48.33c.61.1,1.23.1,1.88.22-.23.58-.65,1.04-1,1.55-1.36-.18-2.85-1.37-3.87-2.32.95.23,2.01.4,2.99.55Z"/>
        <path class="st21" d="M31.13,46.89l1.22,1.44c-.97-.16-2.03-.32-2.99-.55-.65-.16-1.31-.43-1.88-.77,1.19.16,2.46-.07,3.65-.11Z"/>
        <path class="st122" d="M17.64,21.13l.06.77h14.54c.42,1.35,1.76,2.99,2.76,3.98-.01.08.04.43,0,.55-.37.43-1.71,5.85-1.99,6.86-3.98-.84-8.04-1.62-11.45-3.98,1.49-1.04,5.13-2.25,3.7-4.7-.25-.44-1.5-1.4-2.1-1.16-1.05-.69-8.37-.5-10.06-.44,0-.33-.22-.18.06-.44.44-.4,3.68-1.21,4.48-1.44Z"/>
        <path class="st137" d="M33.01,33.29c-.11.4-.22.81-.33,1.22-3.75-.51-7.68-.72-11.5-1l-2.65-2.93,2.88-1.33-1.33-1.16c1.94-.51,4.28-.77,3.87-3.43-.04-.26-.11-.21-.11-.22-.09-.31-.42-.84-.66-1,.6-.24,1.85.72,2.1,1.16,1.43,2.45-2.22,3.67-3.7,4.7,3.41,2.37,7.46,3.14,11.45,3.98Z"/>
        <path class="st126" d="M65.53,21.24c.14.31.72.1.83.11.74.1,1.91.19,2.82.33.15,1.52.33,3.01.44,4.53l-3.98-.22s0-.07,0-.11c.33-2.2-1.46-3.91-3.54-2.99-.09.04-1.37,1.13-1.44,1.22l.22-.88c.06-.04.05-.02.11-.11,1.69-.44,2.82-1.56,4.53-1.88Z"/>
        <path class="st177" d="M58.56,35.95c.11.05.07.04.11.11.08.15.09,1.09.11,1.33-.7-.04-1.4-.11-2.1-.11.08-.42.14-.89.22-1.33.12.02.09-.07.11-.11.37.28,1.24-.02,1.55.11Z"/>
        <path class="st5" d="M58.78,37.38s.07,0,.11,0v.77c-.81,0-1.62,0-2.43,0-.08-.33.17-.62.22-.88.7,0,1.4.07,2.1.11Z"/>
        <path class="st198" d="M60.99,23.12c-.06.09-.05.07-.11.11-.04.03-.67.25-.72.22-.24-.62,1.2-.9.83-.33Z"/>
        <path class="st86" d="M75.81,51.87s.06.3-.17.22c-.15-.05-.06-1.25-.06-1.55.21-7.6.26-14.45-.33-22.06-.01-.18-.33-.52-.33-.55,0-.05.49-.79.55-.55.68,2.74.86,5.58,1,8.41.26,5.32.16,10.84-.66,16.09Z"/>
        <path class="st56" d="M75.15,47.34c-.29.14-.59.07-.88.11.18-3.74.17-7.54.11-11.28-.02-1.19-.04-2.35-.11-3.54,0-.04,0-.07,0-.11l.88-.33c.31,5.22.27,9.93,0,15.15Z"/>
        <path class="st179" d="M74.82,30.19c.76.47.3,1.43.33,1.99l-.88.33c-.05-.81-.17-1.62-.11-2.43.2.06.37-.07.66.11Z"/>
        <path class="st155" d="M34.45,22.67c.16.62.36,1.24.44,1.88-1.2-1.33-2.25-2.67-2.43-4.53l1.55,2.38.44.28Z"/>
        <path class="st138" d="M35.44,51.32c-.4,1.37-1.08,2.62-2.1,3.65-.21-.21-.25-.34-.33-.44.87-1.09,1.67-2.26,2.43-3.43,0,.07.02.17,0,.22Z"/>
        <path class="st158" d="M21.18,33.51c-.26-.02-.55-.09-.77-.11l-2.54-2.76c.14-.07.57-.04.55-.28l-1.44-1.6c1.05-.19,2.06-.39,3.1-.66l1.33,1.16-2.88,1.33,2.65,2.93Z"/>
        <path class="st73" d="M69.84,29.53s.07,0,.11,0v2.99c-1.27-.15-2.64-.47-3.82-1-.48-.21-3.92-2.02-1.99-2.43.71-.15,4.66.34,5.7.44Z"/>
        <path class="st50" d="M69.62,26.21c-.12-1.53-.29-3.02-.44-4.53,1.31.21,2.21.34,2.99,1.49.14.21,1.21,2.51,1.22,2.65.02,1.07-3,.43-3.76.39Z"/>
        <path class="st105" d="M73.93,29.97c.1.02.12.08.22.11-.06.82.06,1.62.11,2.43,0,.04,0,.07,0,.11-1.41,0-2.79.04-4.2-.11-.04,0-.07,0-.11,0v-2.99c1.26.13,2.77.17,3.98.44Z"/>
        <path class="st189" d="M20.4,33.4c-.8-.06-1.63-.06-2.43-.11-.07,0-.15,0-.22,0-.44-.28-1.72-1.7-2.1-1.77.62-.49,1.5-.56,2.21-.88l2.54,2.76Z"/>
        <path class="st104" d="M74.26,47.45c-.1,1.94-.23,3.93-.44,5.86-1.56.14-3.08.25-4.64.33l.22-2.88c.09-.03.13-.08.22-.11,1.15-.41,3.46-2.04,3.87-3.21.18.27.54.03.77,0Z"/>
        <path class="st119" d="M73.82,53.31c-.26,2.37-.86,4.72-1.11,7.08-1.46-.15-2.96-.28-4.42-.33l.77-6.41s.07,0,.11,0c1.57-.08,3.08-.19,4.64-.33Z"/>
        <path class="st174" d="M56.9,49.33c0,.59.09,1.18.11,1.77-.1.01-.1.01-.11.11-6.43-.46-13.41.21-20.02-.66-.33-.04-.66-.12-1-.11.28-.43.52-1.02.77-1.44,0-.01.21-.21.22-.22l20.02.55Z"/>
        <path class="st32" d="M69.62,50.65c-.09.03-.13.08-.22.11-1.27.4-3.89.61-5.25.66-1.82.07-3.66-.13-5.47-.22v-3.76c1.14.06,2.3.04,3.43.11.01.78,1.14.92,1.44,1.33.03.04.14.3.22.39-.33.02-1.05.94-1.27.83-.48-.24.55-.28.39-.72-.61-.27-.84-.25-1.44-.66-.05,2.96,4.22,2.06,2.99-.72,1.86.15,3.78.43,5.31-.88.43.95-.33,2.44-.11,3.54Z"/>
        <path class="st131" d="M58.67,47.45v3.54c-.39.5-1.31.06-1.66.11-.02-.59-.1-1.18-.11-1.77s-.14-1.46.22-1.99c.5.03,1.03.08,1.55.11Z"/>
        <path class="st165" d="M55.13,18.58c.24.92.44,1.84.66,2.76-3.9,3.26-12.93,3.16-15.15-1.99,4.55,1.58,10.07.94,14.49-.77Z"/>
        <path class="st85" d="M40.64,19.36c2.22,5.15,11.25,5.25,15.15,1.99.15.64.3,1.24.44,1.88-5.65,2.02-11.88,2.13-17.47-.11.29-1.34.64-2.79,1-4.2.26.07.67.37.88.44Z"/>
        <path class="st44" d="M56.35,23.67c.04.23.28.46.33,1-5.58,2.87-12.59,3.41-18.36.77-.02-.2-.12-.34-.11-.66.01-.42.16-.65.22-1,5.62,2.69,12.24,1.99,17.92-.11Z"/>
        <path class="st49" d="M38.76,23.12c5.59,2.24,11.82,2.13,17.47.11.03.14.07.22.11.44-5.68,2.1-12.3,2.8-17.92.11.1-.58.32-.62.33-.66Z"/>
        <path class="st114" d="M37.88,35.61c.25.84.45,1.69.66,2.54-1.29.01-2.58-.03-3.87,0,.25-.85.51-1.7.77-2.54.64.03,1.93.4,2.43,0Z"/>
        <path class="st187" d="M44.18,34.95c-.35.31-.73.7-.88,1.22-.13.03-.2.02-.33.11-.37,0-.11-.26-.44-.44-.5-.28-.95-.22-1.44-.33-.4-.09-.55-.49-1.22-.22-.02-.22-.01-.37.11-.55.04-.05.46-.31.55-.33.9-.18,2.9,0,3.65.55Z"/>
        <path class="st143" d="M37.55,34.62c.13.35.23.63.33,1-.5.4-1.79.03-2.43,0,.15-.47.08-.52.33-1.11l1.77.11Z"/>
        <path class="st11" d="M37.43,33.84c.03.05.06.63.11.77l-1.77-.11c.58-1.35.24-.33,1.66-.66Z"/>
        <path class="st193" d="M74.26,47.45c-.23.03-.59.27-.77,0,.85-2.42-1.08-3.05-1.88-4.42-.25-.43-.11-1.17-.33-1.82-.21-.61-1.23-1.62-1.33-2.05-.13-.6.02-2.04,0-2.76.84-.26,3.55.43,4.15.22.33-.12.03-.34.28-.44.06,3.74.07,7.54-.11,11.28Z"/>
        <path class="st31" d="M32.35,35.5c-.22.78-.41,1.55-.66,2.32-.04.14-.09.3-.11.44-1.26.04-2.77-.13-3.98,0l-4.59-3.1,3.26,3.43c-.08.03-.43.26-.55.33l-3.98-4.2,10.62.77Z"/>
        <path class="st107" d="M73.49,47.45c-.41,1.17-2.72,2.8-3.87,3.21-.22-1.1.54-2.59.11-3.54.93-.8,1.32-1.76,1.55-2.88.07-.35.34-.67.22-1.11,0,0,.13.02.11-.11.8,1.37,2.73,2,1.88,4.42Z"/>
        <path class="st42" d="M53.69,36.94c-.11.4-.22.81-.33,1.22-3.13-.02-6.27-.02-9.4,0,.23-.61.54-1.16.77-1.77l8.96.55Z"/>
        <path class="st97" d="M56.01,28.2c-.04.15-.09.23-.11.33l-10.01,5.86c-.34.27-.48.42-.72.77-.47.69-.2.6-.44,1.22s-.54,1.16-.77,1.77c-.33,0-.66,0-1,0l1.22-1.82c-.04-.11-.65-.18-.77-.17-.04,0-.08,0-.11,0,.16-.52.54-.91.88-1.22,1.23-1.1,4.56-2.85,6.14-3.76,1.84-1.06,3.76-2.1,5.7-2.99Z"/>
        <path class="st181" d="M27.59,38.27c-.35.04-.88.21-1.22.33-.03.01-.08-.01-.11,0l-3.26-3.43,4.59,3.1Z"/>
        <path class="st65" d="M42.74,36.5c-.24.25-.73,1.29-.88,1.66-.11,0-.22,0-.33,0l-.44-1.77c.41.07,1.31-.21,1.66.11Z"/>
        <path class="st72" d="M60,37.49c.05.17.3.41.22.66-.43,0-.89,0-1.33,0v-.77c.38.01.74-.04,1.11.11Z"/>
        <path class="st180" d="M57.12,47.34c-.36.53-.23,1.37-.22,1.99l-20.02-.55c.42-.69.87-1.37,1.22-2.1,6.33-.01,12.7.34,19.02.66Z"/>
        <path class="st69" d="M35.55,46.67l-1.22,1.88s-.08,0-.11,0c-.65-.12-1.27-.12-1.88-.22l-1.22-1.44c1.47-.04,2.93-.21,4.42-.22Z"/>
        <path class="st195" d="M64.42,48c1.23,2.78-3.04,3.67-2.99.72.6.42.83.4,1.44.66.17.44-.87.48-.39.72.23.11.95-.81,1.27-.83-.08-.08-.19-.34-.22-.39.73-.43.02-.71-.11-1.22.27.02.94.33,1,.33Z"/>
        <path class="st13" d="M38.1,46.67c-.34.73-.8,1.41-1.22,2.1,0,.01-.21.21-.22.22l-.72-.22c-.35-.21,1.08-1.69,1.05-2.1.37,0,.74,0,1.11,0Z"/>
        <path class="st93" d="M63.42,47.67c.13.5.84.78.11,1.22-.3-.41-1.42-.55-1.44-1.33.45.03.89.08,1.33.11Z"/>
        <path class="st172" d="M59.55,36.06c.13.46.3.97.44,1.44-.37-.15-.73-.1-1.11-.11-.04,0-.07,0-.11,0-.02-.24-.03-1.18-.11-1.33h.88Z"/>
        <path class="st140" d="M58.56,35.95c-.3-.13-1.17.17-1.55-.11.46-.95.53-1.92.94-2.88l.61,2.99Z"/>
        <path class="st92" d="M74.26,32.63c.07,1.18.09,2.35.11,3.54-.25.1.06.33-.28.44-.59.21-3.31-.48-4.15-.22-.03-1.27-.07-2.61.11-3.87,1.41.15,2.8.11,4.2.11Z"/>
        <g>
          <path class="st171" d="M61.1,26.77c1.32,1.79,4.11,1.3,4.53-.77l3.98.22c.08,1.1.26,2.21.22,3.32-1.03-.1-4.98-.6-5.7-.44-1.93.42,1.51,2.22,1.99,2.43,1.18.52,2.54.85,3.82,1,.04,0,.07,0,.11,0-.18,1.26-.14,2.6-.11,3.87.02.73-.13,2.16,0,2.76-.74-.18-1.39-.74-2.16-.88-1.32-.25-3.1-.08-4.48-.11-1.21-4-2.12-8.08-3.43-12.05l.61-.55c.16.55.27.76.61,1.22Z"/>
          <path class="st26" d="M68.35,35.95c.49-.1.61.88.22,1-.78.22-.66-.91-.22-1Z"/>
        </g>
        <g>
          <path class="st106" d="M69.4,50.77l-.22,2.88s-.07,0-.11,0c-3.45.17-6.95.5-10.4.11v-2.54c1.81.09,3.66.29,5.47.22,1.36-.05,3.98-.27,5.25-.66Z"/>
          <path class="st115" d="M68.35,51.32c.44-.06.54.89.11,1-.66.17-.51-.94-.11-1Z"/>
        </g>
        <path class="st0" d="M56.68,24.67s.11.03.11.33c0,.53-.17.58-.22.88-3.94,2.22-8.63,2.86-13.11,2.32-.74-.09-4.06-.87-4.59-1.22-.58-.38-.48-.95-.55-1.55,5.77,2.64,12.78,2.09,18.36-.77Z"/>
        <path class="st103" d="M56.13,27.43c-.05.23-.04.46-.11.77-1.94.88-3.85,1.93-5.7,2.99-1.58.91-4.9,2.66-6.14,3.76-.75-.56-2.74-.74-3.65-.55l-1.44-5.7.17-.28c.05.06.08.11.17.11,1.17.07,2.91.75,4.26.88,4.17.42,8.68-.12,12.44-1.99Z"/>
        <path class="st57" d="M56.13,27.43c-3.76,1.87-8.27,2.41-12.44,1.99-1.35-.14-3.08-.81-4.26-.88-.45-.44-.62-.87-.55-1.55.53.35,3.85,1.13,4.59,1.22,4.48.54,9.17-.1,13.11-2.32-.11.67-.33,1.05-.44,1.55Z"/>
        <path class="st188" d="M41.08,35.5c.49.11.94.05,1.44.33-.37.4-1.2-.04-1.71.11l.28-.44Z"/>
        <path class="st84" d="M54.02,35.72l-8.85-.55c.24-.36.38-.51.72-.77l10.01-5.86c-.58,2.41-1.24,4.8-1.88,7.19Z"/>
        <path class="st146" d="M45.18,35.17l8.85.55c-.09.32-.13.68-.22,1,0,.01-.05,0-.11.22l-8.96-.55c.24-.62-.03-.52.44-1.22Z"/>
        <g>
          <path class="st40" d="M64.86,24.11c-.1-.01-.1.03-.11.11-.6-1.01-2.18-1.16-2.93-.55-.37.3-.32.43-.5.77-.2.39-.45.78-.44,1.27,0,.09.19-.01.22.17.05.31-.19.28.22.77l-.22.11c-.33-.45-.45-.67-.61-1.22l-.61.55c-.04-.13.02-.24-.11-.44.26-.35.55-.68.77-1.05.07-.11-.15-.21-.11-.28.1-.14.19-.18.22-.22.07-.09,1.35-1.18,1.44-1.22.38.3,1.07.05,1.6.22.28.09,1.03.72,1.16,1Z"/>
          <path class="st88" d="M65.64,25.88s0,.08,0,.11c-.43,2.08-3.22,2.57-4.53.77l.22-.11c1,1.22,3.36.65,3.76-.77h.55Z"/>
          <path class="st96" d="M65.64,25.88h-.55c.1-.34-.03-1.39-.22-1.77-.14-.28-.88-.9-1.16-1-.53-.17-1.23.08-1.6-.22,2.08-.93,3.87.79,3.54,2.99Z"/>
          <path class="st170" d="M63.54,24.55l-.22.72.17-.28.39.17c-.34.44-.21.59-.88.5.05-.21.05-.81-.28-.88l-.28,1.22c-.3-.14-.36-.6-.88-.06.47.78,1.33.74,2.05.39.52-.26.81-.99,1.27-1.22-.33,2.06-2.58,2.34-3.76.77-.03-.18-.22-.08-.22-.17,0-.49.24-.88.44-1.27.76-.17-.07,1.14.06,1.22.71.43.34-1.14.77-1.33.42-.14.25.97.66-.33.05.71.23.21.39.39.03.03-.45.67.33.17Z"/>
          <path class="st33" d="M64.75,24.22c-.01.1-.01.23,0,.33-.44.53-.41-.71-.72-.66-.17.15-.31.55-.5.66-.78.5-.3-.13-.33-.17-.16-.18-.33.32-.39-.39-.42,1.3-.24.19-.66.33-.43.18-.07,1.76-.77,1.33-.13-.08.71-1.38-.06-1.22.17-.35.13-.48.5-.77.75-.61,2.33-.45,2.93.55Z"/>
          <path class="st1" d="M65.08,25.88c-.4,1.42-2.76,1.99-3.76.77-.41-.49-.17-.47-.22-.77,1.19,1.57,3.43,1.28,3.76-.77.05-.29-.1-.47-.11-.55-.01-.1-.01-.23,0-.33,0-.08.02-.12.11-.11.19.38.32,1.42.22,1.77Z"/>
          <path class="st75" d="M64.75,24.55c0,.08.16.26.11.55-.46.23-.75.96-1.27,1.22-.71.35-1.58.39-2.05-.39.52-.55.59-.08.88.06.01,0,.07.19.28.11.07-.03.27-.41.28-.44.68.09.55-.06.88-.5l-.39-.17-.17.28.22-.72c.18-.12.32-.52.5-.66.31-.04.28,1.19.72.66Z"/>
          <path class="st123" d="M62.98,25.66s-.21.41-.28.44c-.21.08-.26-.1-.28-.11l.28-1.22c.32.08.33.68.28.88Z"/>
        </g>
        <g>
          <path class="st74" d="M40.09,53.86c.14,1.14-.22,2.72-1.38,3.21-.58.25-1.19.13-1.77.22-.43.07-.18-.02-.17.33-1.27-.75-2.41-1.59-3.43-2.65,1.02-1.03,1.7-2.28,2.1-3.65.98.52,2.33.77,3.26,1.33.48.29.93.95,1.38,1.22Z"/>
          <path class="st98" d="M36.22,54.3c.04.29.98.82,1,.94.03.23-.39.35-.28.5.31.38.6-.8,1.27-.55-.12.51-.64.56-.72,1,.98-.3,1.33-1.06,1.49-1.99,1.03,2.63-3.6,3.13-3.21.17.03-.23.34-.77.55-.94.38.43-.16.49-.11.88Z"/>
          <path class="st37" d="M38.21,55.19c-.67-.24-.97.93-1.27.55-.12-.14.31-.27.28-.5-.02-.12-.96-.65-1-.94,1.05-.2.89,1.31,1.94.55.32.2.06.31.06.33Z"/>
          <g>
            <path class="st162" d="M38.98,54.19c-.17.93-.51,1.69-1.49,1.99.08-.44.6-.48.72-1,0-.02.27-.14-.06-.33-1.04.76-.89-.76-1.94-.55-.05-.39.49-.46.11-.88.91-.72,2.24-.27,2.65.77Z"/>
            <path class="st87" d="M37.49,53.2c.77.14.64,1.16-.11,1.11-.67-.05-1.08-1.33.11-1.11Z"/>
          </g>
        </g>
      </g>
      <g>
        <path class="st134" d="M32.57,51.98l-.33-.33c.34-.5.66-1.04,1-1.55s.76-.97,1-1.55c.04,0,.08,0,.11,0,.17.04.56-.13.55.17-.73,1.1-1.62,2.15-2.32,3.26Z"/>
        <path class="st127" d="M32.57,51.98c-.26.41-.4,1.12-.88,1.44-.01-.02-.28-.28-.33-.33.1-.6.57-.98.88-1.44l.33.33Z"/>
        <path class="st129" d="M36.22,46.67c-.11.27-1.24,1.72-1.22,1.82.08.38.79-.19.44.77-.09.26-2.84,4.21-3.1,4.48-.02.02-.37.21-.44.22-.05-.11-.2-.53-.22-.55.48-.31.63-1.03.88-1.44.7-1.11,1.59-2.16,2.32-3.26,0-.3-.38-.12-.55-.17l1.22-1.88c.22,0,.44,0,.66,0Z"/>
        <path class="st144" d="M36.99,46.67c.03.42-1.4,1.89-1.05,2.1l.72.22c-.26.42-.5,1.01-.77,1.44-.14.23-.3.44-.44.66-.76,1.17-1.57,2.34-2.43,3.43-.2-.23-.58-.38-.66-.77.26-.27,3-4.22,3.1-4.48.35-.96-.37-.39-.44-.77-.02-.11,1.11-1.56,1.22-1.82.26,0,.52,0,.77,0Z"/>
        <g>
          <path class="st147" d="M23.61,41.7c.11-.69.73-1.61,1.22-2.1.24-.24.59-.49.88-.66.13-.07.48-.3.55-.33.03-.01.08.01.11,0,.28.4-.49.78-.55,1.05-.16.65.17,1.25.72,1.6,3.07,1.95,21.27,1.02,25.99,1.11,5.93.1,11.87.63,17.81.66,1.14.36-2.2,1.74-2.65,1.66-12.1-.52-24.66.2-36.72-.55-1.98-.12-4.53-.26-6.19-1.44-.41-.29-.64-.95-1.16-1Z"/>
          <path class="st68" d="M71.28,44.24c-.22,1.12-.62,2.08-1.55,2.88-1.53,1.31-3.45,1.03-5.31.88-.05,0-.73-.31-1-.33-.44-.03-.88-.08-1.33-.11-1.13-.07-2.29-.05-3.43-.11-.51-.03-1.04-.08-1.55-.11-6.32-.32-12.69-.68-19.02-.66-.37,0-.74,0-1.11,0-.26,0-.52,0-.77,0-.22,0-.44,0-.66,0-1.49.01-2.95.18-4.42.22-1.19.04-2.46.27-3.65.11-2.16-.3-3.75-2.31-3.87-4.42.83,1.44,2.48,1.97,4.04,2.21,7.29,1.13,17.21.59,24.77.77,4.59.11,9.22.77,13.82.44,1.77-.13,3.78-.38,5.03-1.77Z"/>
          <path class="st135" d="M71.5,43.13c.12.43-.15.76-.22,1.11-1.25,1.39-3.26,1.64-5.03,1.77-4.6.33-9.24-.33-13.82-.44-7.56-.18-17.49.35-24.77-.77-1.56-.24-3.21-.78-4.04-2.21,0-.04,0-.07,0-.11.22-.4.77.57,1.05.77,2.8,2.03,14.89,1.68,18.91,1.77,7.13.15,14.25.32,21.34.55,3.78.12,4.02-.12,6.58-2.43Z"/>
          <g>
            <path class="st164" d="M38.54,38.16c.44,0,.89,0,1.33,0,.26,0,.52,0,.77,0,.29,0,.59,0,.88,0,.11,0,.22,0,.33,0,.15,0,.3,0,.44,0,.22,0,.44,0,.66,0,.33,0,.66,0,1,0,3.13-.02,6.27-.02,9.4,0,.37,0,.74,0,1.11,0,.22,0,.44,0,.66,0,.44,0,.89,0,1.33,0,.81,0,1.62,0,2.43,0,.44,0,.9,0,1.33,0,.48,0,.96,0,1.44,0,.22,0,.44,0,.66,0,.33,0,.67,0,1,0,1.38.03,3.16-.14,4.48.11.77.15,1.42.7,2.16.88.09.43,1.12,1.44,1.33,2.05.22.65.08,1.39.33,1.82.02.13-.1.1-.11.11-2.56,2.31-2.8,2.55-6.58,2.43-7.1-.23-14.21-.4-21.34-.55-4.02-.09-16.11.26-18.91-1.77-.28-.21-.83-1.18-1.05-.77,0-.23-.03-.56,0-.77.52.04.75.71,1.16,1,1.66,1.18,4.22,1.31,6.19,1.44,12.05.75,24.61.03,36.72.55.45.08,3.79-1.3,2.65-1.66-5.94-.03-11.87-.56-17.81-.66-4.72-.08-22.92.85-25.99-1.11-.55-.35-.88-.95-.72-1.6.07-.27.84-.65.55-1.05.34-.12.87-.29,1.22-.33,1.21-.13,2.72.04,3.98,0,.66-.02,1.33.02,1.99,0,.38,0,.82-.1,1.11-.11,1.29-.03,2.58.01,3.87,0Z"/>
            <path class="st4" d="M30.74,38.6l36.05.22c.95.12,2.21.73.55,1.11-12.27-.23-24.63.06-36.83-1.11l.22-.22Z"/>
          </g>
        </g>
        <g>
          <path class="st145" d="M40.42,36.28s.54.09.66.11l.44,1.77c-.29,0-.59,0-.88,0-.07-.43-.73-1.62-.22-1.88Z"/>
          <path class="st14" d="M41.08,35.5l-.28.44c.52-.15,1.35.29,1.71-.11.33.18.07.44.44.44-.01,0-.18.18-.22.22-.35-.32-1.25-.04-1.66-.11-.13-.02-.63-.09-.66-.11-.17-.1-.54-.84-.55-1,.66-.27.82.13,1.22.22Z"/>
          <g>
            <path class="st77" d="M32.57,10.62c.36.47.34,1.43.44,1.77l-1.11.11c-.15-.58-.43-1.17-.55-1.77.41-.01.8-.09,1.22-.11Z"/>
            <path class="st110" d="M40.97,10.29c-.06,1.01-.87,1.54.55,1.6-.31.66-.3,1.51-.44,2.16-.34,1.6-.92,3.26-1.33,4.87-.36,1.42-.7,2.86-1,4.2,0,.04-.23.08-.33.66-.06.34-.21.58-.22,1-.33.21-.26.64-.33.88-.13.4-.4.84-.44,1.27,0,.03.1,1.01.33.5.08,1.09,1.29,4.92,1.66,6.25.07.25.25,1,.55,1.05-.12.19-.13.34-.11.55.01.15.38.89.55,1-.51.26.15,1.45.22,1.88-.26,0-.52,0-.77,0,.05-.4-.13-.74-.22-1.11-.74-3.04-1.52-6.07-2.21-9.12-.14.11-.76,1.04-.77,1.11-.05.23.12.31.11.39-.11.58-.13,1.18-.22,1.77-.05.32-.62,2.17-.55,2.27.07.1.98.04,1.22.17.14.08.15.09.22.22-1.42.33-1.07-.69-1.66.66-.25.59-.19.64-.33,1.11-.26.84-.52,1.7-.77,2.54-.28,0-.73.1-1.11.11-.27-.24-.22-.07-.11-.39,2.45-7.29,4.31-15.51,6.3-23,.06-.24.3-.7-.22-.61.26-.79.5-1.5.66-2.32.28-1.4.01-.64-1.22-.77.09-.29.23-.6.33-.88.55-.01,1.11,0,1.66,0Z"/>
            <path class="st39" d="M34.23,10.51l2.43,9.07c-.21.72-.17,2.31-.88,2.71-.6-3.38-1.79-6.62-2.76-9.9-.1-.34-.09-1.3-.44-1.77.56-.02,1.1-.09,1.66-.11Z"/>
            <path class="st94" d="M42.08,10.29l-1,3.76c.14-.65.13-1.5.44-2.16-1.43-.06-.62-.6-.55-1.6.38,0,.73,0,1.11,0Z"/>
            <path class="st34" d="M33.56,38.27c-.66.02-1.33-.02-1.99,0,.02-.14.07-.31.11-.44.45-.08.83.33,1.11-.17,1.05-3.81,2.01-7.65,3.1-11.45.35-1.21.64-2.45,1-3.65.2-.67.4-1.79.88-2.16l1.22-4.48c.2-.56.37-1.1.55-1.66.52-.09.29.37.22.61-2,7.49-3.86,15.71-6.3,23-.11.32-.16.14.11.39Z"/>
            <path class="st17" d="M35.89,26.21c-1.09,3.79-2.05,7.64-3.1,11.45-.28.5-.65.09-1.11.17.25-.78.44-1.54.66-2.32.09-.33.24-.67.33-1,.11-.4.22-.81.33-1.22.28-1.01,1.62-6.43,1.99-6.86.04-.04.76-.39.88-.22Z"/>
            <path class="st61" d="M40.2,11.95l-1.44.11c.08-.29.14-.6.22-.88,1.23.13,1.49-.63,1.22.77Z"/>
            <g>
              <path class="st66" d="M40.2,11.95c-.16.82-.4,1.53-.66,2.32-.19.56-.36,1.1-.55,1.66-.76,2.15-2.11,4.3-2.1,6.64-.36,1.2-.65,2.44-1,3.65-.12-.17-.85.18-.88.22.04-.13-.01-.48,0-.55.04-.24.38-1.02.33-1.16-.02-.06-.16.15-.44-.17-.09-.64-.28-1.26-.44-1.88-.31-1.18-.7-2.37-1-3.54-.52-2.09-.97-4.45-1.55-6.64l1.11-.11c.98,3.28,2.16,6.52,2.76,9.9.71-.4.67-1.99.88-2.71.68-2.31,1.43-5.01,2.1-7.52l1.44-.11Z"/>
              <path class="st132" d="M36.88,22.56c0-2.34,1.34-4.49,2.1-6.64l-1.22,4.48c-.49.37-.68,1.48-.88,2.16Z"/>
              <path class="st83" d="M34.5,18.36l.66,2.76c-.26.13-.88-2.46-.66-2.76Z"/>
            </g>
            <path class="st15" d="M38.32,25.44c.07.6-.03,1.17.55,1.55-.06.67.1,1.11.55,1.55-.09,0-.11-.05-.17-.11l-.17.28,1.44,5.7c-.09.02-.52.28-.55.33-.31-.05-.48-.8-.55-1.05-.37-1.33-1.58-5.16-1.66-6.25-.03-.4.51-1.27.11-1.77.08-.24,0-.68.33-.88,0,.32.09.46.11.66Z"/>
            <path class="st113" d="M39.65,37.05c.09.37.28.71.22,1.11-.44,0-.89,0-1.33,0-.21-.85-.42-1.7-.66-2.54-.11-.36-.2-.64-.33-1-.06-.15-.08-.72-.11-.77-.07-.14-.09-.15-.22-.22.08-.71-.26-1.84-.66-2.43.09-.59.11-1.19.22-1.77.24-.05.12-.32.33-.06.9,1.14,1.16,6.39,1.99,7.96.35.67.42.09.55-.28Z"/>
            <path class="st29" d="M39.65,37.05c-.14.37-.2.94-.55.28-.83-1.58-1.09-6.82-1.99-7.96-.21-.27-.1,0-.33.06.01-.07-.16-.16-.11-.39.02-.07.64-.99.77-1.11.69,3.05,1.48,6.08,2.21,9.12Z"/>
            <path class="st38" d="M37.21,33.62c-.24-.13-1.14-.06-1.22-.17-.07-.09.5-1.94.55-2.27.41.59.75,1.72.66,2.43Z"/>
            <path class="st199" d="M37.77,27.43c-.23.51-.33-.47-.33-.5.04-.43.32-.87.44-1.27.4.5-.14,1.37-.11,1.77Z"/>
          </g>
          <path class="st117" d="M42.96,38.16c-.22,0-.44,0-.66,0l1.11-1.99c.12,0,.73.05.77.17l-1.22,1.82Z"/>
          <path class="st161" d="M43.3,36.17s.07,0,.11,0l-1.11,1.99c-.15,0-.3,0-.44,0,.16-.37.65-1.41.88-1.66.04-.04.21-.21.22-.22.13-.09.2-.08.33-.11Z"/>
        </g>
        <g>
          <path class="st190" d="M62.21,11.5c-.24.82-.35,1.25.72.88l.06.55c-.62,2.28-1.31,4.56-1.88,6.86-.06.24-.58,1.44-.44,1.6l.77-.06c-.05.22-.49,1.35-.17,1.33,1.8-1.2,3.93-1.65,6.03-2.1.37.04.73-.06,1.11.11-.08.01-1.05.51-1.38.55-.27.04-.52-.23-.55-.22-.09.02-.61.16-.94.22-1.72.32-2.84,1.44-4.53,1.88.37-.57-1.06-.29-.83.33.05.03.68-.19.72-.22l-.22.88s-.12.08-.22.22l-.55-.06c-.16.34-.13.99-.22,1.27-.24.71-.83,1.43-.39,2.21l.39-.28c-.47.68,0,.71.11,1.11.84,3.19,1.64,6.39,2.54,9.57-.22,0-.44,0-.66,0-.23-1.52-.83-2.96-1.22-4.42-.27-1.03-.83-4.49-1.22-5.14-.01-.02-.37-.36-.44-.22.45.66,0,.67-.11,1.05-.15-.66-.65.87-.66.94-.02.07.28,0,.22.22-.18.67-.38,1.19-.55,1.88-.14.55-.63,1.75-.77,2.43-.03.14.05.79,0,1.05-.08.44-.14.9-.22,1.33-.05.27-.3.56-.22.88-.44,0-.89,0-1.33,0,2.19-7.74,4.09-15.57,6.19-23.34.19-.69.42-1.38.66-2.05-.76-.72-1.32.18-1.77-.17.13-.45.29-.89.44-1.33.53.04,1.05.18,1.55.22Z"/>
          <path class="st154" d="M63.31,11.62c-.04.46-.21.89-.33,1.33l-.06-.55c-1.07.36-.96-.06-.72-.88.38.03.74.08,1.11.11Z"/>
          <path class="st166" d="M61.66,20.13c-.08.4-.13.82-.22,1.22l-.77.06c-.13-.16.38-1.37.44-1.6-.11.21.51.33.55.33Z"/>
          <path class="st78" d="M56.13,10.95c.31,2.6,1.33,5.18,1.99,7.74.07.26.02.63.22.88-.05.21-.04.62-.11.88-.08.29-.15.59-.22.88-.23.02-.4-.57-.44-.72-.28-.96-1.81-7.58-2.16-7.8-.1-.06-.26.2-.39.11-.08-.06-.07-.06-.11-.11-.2-.25-.45-1.6-.55-1.99.59.04,1.19.07,1.77.11Z"/>
          <path class="st183" d="M54.36,10.84c.11.39.36,1.74.55,1.99l-1.22.11c-.19-.67-.63-1.49-.77-2.21.48.03.96.08,1.44.11Z"/>
          <path class="st148" d="M61.32,14.82c-2.11,7.76-4,15.59-6.19,23.34-.22,0-.44,0-.66,0,.07-.29.15-.59.22-.88.88-3.47,1.81-6.94,2.76-10.4.83-3.02,1.58-6.08,2.54-9.07.23-.72.62-2.11.88-2.71.1-.22.17-.33.44-.28Z"/>
          <path class="st167" d="M59.78,25.66c.13.21.07.31.11.44,1.31,3.97,2.21,8.06,3.43,12.05-.33,0-.67,0-1,0-.9-3.17-1.71-6.37-2.54-9.57-.1-.4-.58-.42-.11-1.11l-.39.28c-.44-.78.15-1.5.39-2.21-.02.13.11.1.11.11Z"/>
          <path class="st48" d="M61.32,14.82c-.27-.05-.35.06-.44.28-.26.6-.65,1.99-.88,2.71-.81.46-.5,2.72-1.77,2.65.07-.27.06-.68.11-.88.08-.29.25-.58.33-.88.52-2.02.97-4.08,1.55-6.08.45.35,1.01-.55,1.77.17-.25.67-.48,1.36-.66,2.05Z"/>
          <path class="st6" d="M58.89,29.86c.17.82.45,1.62.66,2.43.3,1.13,1.1,5.28.88,1.44.39,1.47.99,2.91,1.22,4.42-.48,0-.96,0-1.44,0,.08-.25-.17-.49-.22-.66-.14-.47-.32-.98-.44-1.44-.55-2.01-1.39-4.31-1-6.3.12.03.16.16.33.11Z"/>
          <path class="st18" d="M58.67,29.42c-.03.11-.08.16-.11.33-.39,1.99.45,4.29,1,6.3h-.88c-.04-.07,0-.06-.11-.11l-.61-2.99c-.41.95-.48,1.93-.94,2.88-.02.04.01.13-.11.11.05-.26-.03-.91,0-1.05.14-.68.64-1.88.77-2.43.17-.69.37-1.21.55-1.88.06-.21-.24-.16-.22-.22.02-.07.51-1.6.66-.94Z"/>
          <path class="st108" d="M60.44,33.73c.21,3.84-.58-.3-.88-1.44.52-.21-.36-2.6-.5-2.65-.06-.02-.15.22-.17.22-.17.05-.21-.08-.33-.11.03-.17.08-.22.11-.33.1-.39.56-.39.11-1.05.07-.14.43.2.44.22.39.65.95,4.11,1.22,5.14Z"/>
          <path class="st82" d="M60.44,24.33c-.04.06.18.16.11.28-.22.37-.52.71-.77,1.05,0,0-.13.02-.11-.11.09-.28.06-.93.22-1.27l.55.06Z"/>
          <path class="st133" d="M54.91,12.83c.04.05.03.05.11.11.32,1.69.88,3.32,1.33,4.98-.14-.06-.43.21-.44.28-.07.42,1.22,3.89,1.38,4.59.21.02.28-.52.28-.66h.22c-.23.91-.34,2.19-1,2.88,0-.31-.11-.31-.11-.33-.05-.53-.29-.76-.33-1-.04-.22-.08-.31-.11-.44-.14-.64-.29-1.24-.44-1.88-.22-.92-.43-1.85-.66-2.76-.48-1.86-.91-3.8-1.44-5.64l1.22-.11Z"/>
          <path class="st204" d="M58.67,18.69c-.08.3-.26.59-.33.88-.2-.26-.15-.63-.22-.88h.55Z"/>
          <path class="st149" d="M60,17.81c-.96,2.99-1.71,6.05-2.54,9.07l-3.32,10.17c-.16-.08-.38-.1-.33-.33.09-.32.13-.67.22-1,.64-2.39,1.3-4.78,1.88-7.19.02-.1.07-.18.11-.33.07-.31.06-.54.11-.77.11-.5.33-.88.44-1.55.05-.3.23-.36.22-.88.65-.68.76-1.96,1-2.88.07-.26.16-.52.22-.77.07-.29.15-.59.22-.88,1.27.06.96-2.2,1.77-2.65Z"/>
          <path class="st95" d="M58.01,21.35c-.07.25-.16.52-.22.77h-.22c-.02-.5-1-3.41-1.22-4.2-.45-1.65-1-3.29-1.33-4.98.12.09.29-.17.39-.11.34.21,1.88,6.84,2.16,7.8.04.15.22.74.44.72Z"/>
          <path class="st43" d="M54.13,37.05c.18.09.37.12.55.22-.07.29-.15.59-.22.88-.37,0-.74,0-1.11,0,.11-.4.22-.81.33-1.22.06-.21.11-.21.11-.22-.05.23.17.25.33.33Z"/>
          <path class="st9" d="M57.45,26.88c-.95,3.45-1.88,6.92-2.76,10.4-.18-.1-.37-.13-.55-.22l3.32-10.17Z"/>
          <path class="st142" d="M59.55,32.3c-.22-.81-.49-1.61-.66-2.43.01,0,.11-.24.17-.22.13.05,1.02,2.45.5,2.65Z"/>
          <path class="st63" d="M56.35,17.92c.21.79,1.2,3.7,1.22,4.2,0,.14-.07.69-.28.66-.16-.7-1.45-4.17-1.38-4.59,0-.06.31-.34.44-.28Z"/>
        </g>
        <g>
          <path class="st28" d="M58.67,54.08c3.37.08,6.62,2.75,7.52,5.97.19.67.35,1.63.33,2.32-.25,10.61-16.54,10.9-16.59,0,0-.59.02-.97.11-1.55.22-1.4.94-2.91,1.88-3.98,1.21-1.37,3.16-2.49,4.98-2.65l.11-.11c.53.32,1.14-.01,1.66,0Z"/>
          <g>
            <path class="st191" d="M56.57,54.75s-.12.24-.22.28c.06.38,1.98.1,2.49.17,2.2.3,5.18,3.34,6.47,5.09.04.58.27,1.79-.28,2.1-.05-1.34-1.36-4.14-2.65-4.64-.29-.11-.31.23-.33.22-1.9-.85-2.45-1.54-4.81-1.11.05-.34-.68-.24-.83-.22-.32.05-2.59.7-2.71.77l-.22-.33c.67-.37,1.4-1.51,2.32-1.71-.24-.19-.75-.03-1,.06.05-.37,1.72-1.38,1.77-.66Z"/>
            <path class="st173" d="M62.43,60.06c-.68.22-1.04-.74-1.6-1.11-4.02-2.56-8.67,2.27-5.92,6.14.32.44,1.78,1.26.77,1.27-6.95-4.27,3.12-13.3,6.75-6.3Z"/>
            <path class="st120" d="M65.3,60.28c-1.29-1.75-4.27-4.79-6.47-5.09-.51-.07-2.42.22-2.49-.17.1-.04.21-.27.22-.28.31-.17,2.29-.16,2.71-.11,2.81.36,5.84,2.8,6.03,5.64Z"/>
            <path class="st168" d="M57.23,56.85c-2.94.53-5.1,3.71-4.48,6.64-.72-1.38-.11-5.45.94-6.08.12-.07,2.39-.73,2.71-.77.15-.02.88-.12.83.22Z"/>
            <path class="st175" d="M51.54,63.59c.68,1.64,1.48,3.17,2.88,4.31l2.65,1.55c-2.69-.09-6.21-2.94-5.53-5.86Z"/>
            <path class="st125" d="M53.47,57.07c-.17.09-.4.31-.55.06.34-.67,1.15-1.46,1.88-1.71.24-.08.76-.25,1-.06-.92.21-1.65,1.35-2.32,1.71Z"/>
            <g>
              <path class="st136" d="M62.43,60.06c2.3,4.44-2.45,8.94-6.75,6.3,1.01-.01-.46-.83-.77-1.27-2.75-3.86,1.9-8.7,5.92-6.14.57.36.92,1.33,1.6,1.11Z"/>
              <g>
                <path class="st152" d="M57.62,60.39c2.91-.57,3.49,3.56,1.11,3.98-3,.53-3.3-3.56-1.11-3.98Z"/>
                <g>
                  <path class="st62" d="M59.22,63.26s.45-.24.44-.11c-.67,1.4-2.88,1.09-3.21-.44.05-.02.22-.21.22-.22.81,1.1,1.28,1.46,2.54.77Z"/>
                  <path class="st58" d="M59.66,63.15c.01-.13-.42.1-.44.11.02-.07.07-.16.11-.22.52-.77.42-1.59-.44-1.99-.64-.3-.97-.27-1.55.11-.75.5-.5.6-.66,1.33,0,.02-.17.21-.22.22-.63-2.97,4.64-2.56,3.21.44Z"/>
                  <path class="st45" d="M57.56,61.94c.21.54,0,.56.66.88.15.07.9.22,1.11.22-.04.06-.09.15-.11.22-1.27.68-1.73.33-2.54-.77.16-.73-.08-.83.66-1.33-.17.45.18.67.22.77Z"/>
                  <path class="st200" d="M59.33,63.04c-.21,0-.96-.15-1.11-.22.8-.16.51-.31.55-1,.02-.27-.06-.53.11-.77.86.4.96,1.22.44,1.99Z"/>
                  <path class="st54" d="M58.89,61.05c-.18.24-.09.51-.11.77l-1.22.11c-.04-.1-.39-.33-.22-.77.58-.38.9-.41,1.55-.11Z"/>
                  <path class="st10" d="M58.78,61.82c-.04.69.24.83-.55,1-.66-.32-.46-.35-.66-.88l1.22-.11Z"/>
                </g>
              </g>
            </g>
          </g>
        </g>
      </g>
    </g>
  </g>
</svg>